<?xml version="1.0" standalone="no"?>
<!DOCTYPE svg PUBLIC "-//W3C//DTD SVG 20010904//EN"
 "http://www.w3.org/TR/2001/REC-SVG-20010904/DTD/svg10.dtd">
<svg version="1.0" xmlns="http://www.w3.org/2000/svg"
 width="1210.000000pt" height="980.000000pt" viewBox="0 0 1210.000000 980.000000"
 preserveAspectRatio="xMidYMid meet">

<g transform="translate(0.000000,980.000000) scale(0.100000,-0.100000)"
fill="#000000" stroke="none">
<path d="M748 9784 c-358 -65 -645 -347 -719 -709 -18 -87 -19 -218 -19 -3472
0 -3058 1 -3389 15 -3458 65 -314 266 -558 555 -676 167 -68 11 -63 2129 -66
1053 -2 1916 -4 1917 -6 2 -2 -90 -237 -204 -522 l-208 -520 -609 -5 c-570 -5
-612 -6 -640 -23 -74 -45 -105 -148 -67 -223 24 -47 57 -79 95 -93 20 -8 938
-11 3063 -11 3010 0 3035 0 3074 20 120 61 132 233 22 302 l-37 23 -605 5
-605 5 -207 519 c-114 286 -206 521 -205 523 2 1 863 4 1913 5 l1909 3 96 26
c334 93 574 332 661 659 l23 85 0 3430 0 3430 -23 84 c-96 352 -368 603 -722
667 -113 20 -10488 19 -10602 -2z m10588 -348 c200 -53 361 -220 403 -416 9
-41 12 -788 14 -2983 l2 -2927 -5702 0 -5703 0 0 2889 c0 2023 3 2913 11 2968
31 226 190 408 409 469 70 19 10493 19 10566 0z m417 -6943 c-3 -273 -10 -336
-50 -420 -73 -157 -203 -262 -378 -308 -53 -13 -599 -15 -5265 -15 -4603 0
-5212 2 -5269 15 -145 35 -292 146 -363 275 -65 117 -70 147 -75 427 -3 139
-3 260 1 268 5 13 633 15 5703 15 l5698 0 -2 -257z m-4644 -1098 c12 -13 411
-1013 411 -1031 0 -12 -240 -14 -1458 -14 -802 0 -1461 2 -1464 5 -3 3 88 238
201 523 l207 517 1024 5 c564 3 1035 5 1047 5 12 0 26 -4 32 -10z"/>
<path d="M6833 8779 c-18 -5 -48 -26 -68 -46 -81 -83 -66 -206 33 -274 l36
-24 2075 0 2076 0 37 23 c112 70 112 234 0 304 l-37 23 -2060 2 c-1255 1
-2073 -2 -2092 -8z"/>
<path d="M3186 8509 c-169 -22 -422 -86 -466 -118 -45 -33 -70 -80 -70 -134 0
-49 33 -156 342 -1097 208 -636 268 -819 290 -890 37 -120 115 -175 210 -150
50 14 -25 -56 1088 1020 173 168 357 345 409 395 97 94 121 131 121 189 0 54
-16 83 -83 153 -145 152 -364 307 -589 418 -228 112 -468 184 -718 215 -100
12 -435 11 -534 -1z m445 -339 c357 -36 685 -162 966 -373 46 -34 83 -67 83
-74 0 -6 -22 -31 -49 -55 -45 -40 -750 -720 -991 -955 -58 -56 -108 -99 -111
-95 -4 4 -23 57 -42 117 -20 61 -81 251 -137 424 -275 854 -310 964 -307 968
7 7 162 33 243 42 115 12 228 12 345 1z"/>
<path d="M6813 8001 c-45 -21 -87 -75 -98 -128 -8 -42 10 -105 41 -143 55 -65
-120 -60 2157 -60 l2074 0 34 23 c69 46 99 121 80 194 -15 54 -46 92 -95 114
-39 18 -117 19 -2096 19 -1997 0 -2056 -1 -2097 -19z"/>
<path d="M2280 7885 c-52 -19 -155 -64 -227 -100 -528 -259 -943 -739 -1127
-1301 -189 -578 -141 -1178 139 -1730 216 -425 566 -770 995 -981 212 -103
399 -163 655 -209 142 -26 528 -26 670 0 258 46 442 104 650 206 366 177 685
463 902 808 59 95 69 131 54 189 -22 80 28 47 -816 548 -613 364 -767 456
-875 521 l-105 62 -52 159 c-28 87 -106 327 -173 533 -67 206 -150 463 -185
570 -35 107 -89 274 -120 370 -31 96 -63 194 -71 218 -38 114 -101 173 -187
172 -18 -1 -75 -16 -127 -35z m113 -655 c48 -151 147 -455 219 -675 133 -410
217 -671 245 -760 21 -68 47 -116 75 -141 12 -12 147 -95 298 -184 151 -90
367 -218 480 -285 278 -166 787 -468 828 -491 17 -10 32 -23 32 -29 0 -14
-101 -139 -168 -208 -95 -98 -270 -234 -384 -300 -780 -451 -1720 -323 -2338
320 -274 284 -445 636 -504 1035 -20 135 -21 391 -1 523 92 616 458 1136 999
1422 56 29 107 52 115 50 10 -1 46 -98 104 -277z"/>
<path d="M5264 7596 c-18 -8 -108 -88 -200 -178 -93 -90 -374 -361 -624 -603
-691 -666 -746 -722 -759 -772 -13 -49 -2 -113 27 -152 10 -14 84 -65 163
-112 229 -137 608 -363 804 -479 99 -59 333 -198 520 -309 311 -186 345 -203
397 -208 81 -8 138 21 185 95 50 78 146 281 182 386 153 439 166 916 36 1366
-95 331 -225 568 -463 844 -112 130 -180 160 -268 122z m121 -501 c352 -497
440 -1146 235 -1715 -71 -196 -69 -194 -124 -161 -43 26 -551 327 -981 581
-198 117 -367 219 -375 227 -13 12 -7 22 55 81 84 80 222 212 535 512 521 501
584 560 589 560 3 0 33 -38 66 -85z"/>
<path d="M9845 6911 c-48 -22 -69 -44 -90 -94 -13 -32 -15 -199 -15 -1432 l0
-1396 -72 3 -73 3 -5 996 -5 996 -27 35 c-54 70 -33 68 -653 68 -620 0 -599 2
-653 -68 l-27 -35 -5 -996 -5 -996 -77 -3 -78 -3 0 741 c0 599 -3 747 -14 773
-17 43 -78 95 -118 102 -18 3 -281 5 -584 3 l-551 -3 -36 -28 c-76 -58 -72 -4
-75 -839 l-2 -746 -119 -4 c-116 -3 -120 -4 -158 -34 -21 -17 -46 -46 -55 -65
-39 -76 -8 -180 66 -224 l43 -25 2452 0 c2091 0 2456 2 2479 14 113 59 136
203 46 288 -44 41 -75 48 -205 48 l-119 0 -2 1408 -3 1408 -28 43 c-55 83 -38
81 -652 81 -503 0 -543 -2 -580 -19z m913 -1626 l2 -1295 -332 2 -333 3 -3
1285 c-1 707 0 1290 2 1295 2 6 120 9 332 8 l329 -2 3 -1296z m-1508 -415 l0
-880 -340 0 -340 0 0 880 0 880 340 0 340 0 0 -880z m-1535 -240 l0 -635 -337
-3 -338 -2 0 640 0 640 338 -2 337 -3 0 -635z"/>
</g>
</svg>
